<?xml version="1.0" encoding="utf-8"?>
<!-- Generator: Adobe Illustrator 24.1.3, SVG Export Plug-In . SVG Version: 6.00 Build 0)  -->
<svg version="1.1" id="編集モード" xmlns="http://www.w3.org/2000/svg" xmlns:xlink="http://www.w3.org/1999/xlink" x="0px"
	 y="0px" viewBox="0 0 38.1 37.5" style="enable-background:new 0 0 38.1 37.5;" xml:space="preserve">
<style type="text/css">
	.st0{fill:#FFFFFF;}
</style>
<path class="st0" d="M19.1,7c-1.9,0-3.5-1.6-3.5-3.5S17.1,0,19.1,0s3.5,1.6,3.5,3.5S21,7,19.1,7z M19.1,1.2c-1.3,0-2.3,1-2.3,2.3
	c0,1.3,1,2.3,2.3,2.3c1.3,0,2.3-1,2.3-2.3c0,0,0,0,0,0C21.3,2.3,20.3,1.2,19.1,1.2C19.1,1.2,19.1,1.2,19.1,1.2L19.1,1.2z"/>
<path class="st0" d="M9.7,37.5c-0.8,0-1.5-0.3-2-0.9c-0.9,1.1-2.6,1.2-3.7,0.2c-0.5-0.5-0.9-1.1-0.9-1.9V24.3
	c-0.2,0.1-0.5,0.2-0.7,0.2c-0.6,0.1-1.2-0.1-1.7-0.5C0.3,23.6,0,23,0,22.4v-8.3c0-2.1,1.7-3.8,3.8-3.8h7.8c0.2,0,0.4,0.1,0.5,0.3
	c0.1,0.2,0.1,0.4,0.1,0.6c-0.1,0.3-0.2,0.6-0.2,0.9v9c0,0.2,0.1,0.4,0.2,0.6c0.1,0.1,0.1,0.2,0.1,0.3v13
	C12.2,36.4,11.1,37.5,9.7,37.5z M8.3,35c0.1,0.7,0.8,1.3,1.5,1.1c0.6-0.1,1.1-0.6,1.1-1.1V22.2c-0.2-0.3-0.3-0.7-0.3-1.1v-9
	c0-0.2,0-0.4,0-0.5h-7c-1.4,0-2.5,1.1-2.5,2.5v8.3c0,0.3,0.1,0.5,0.3,0.7c0.2,0.2,0.5,0.3,0.7,0.2c0.5-0.1,0.9-0.5,0.9-1v-5.7
	c0-0.3,0.3-0.6,0.6-0.6c0,0,0,0,0,0c0.3,0,0.6,0.3,0.6,0.6c0,0,0,0,0,0V35c0,0.8,0.6,1.4,1.4,1.4s1.4-0.6,1.4-1.4v-9.6
	c0-0.3,0.3-0.6,0.6-0.6s0.6,0.3,0.6,0.6V35z"/>
<path class="st0" d="M7.7,9.4c-1.8,0-3.3-1.5-3.2-3.3S6,2.9,7.8,2.9c1.8,0,3.2,1.5,3.2,3.3C11,8,9.5,9.4,7.7,9.4
	C7.7,9.4,7.7,9.4,7.7,9.4z M7.7,4.1c-1.1,0-2,0.9-2,2s0.9,2,2,2s2-0.9,2-2S8.8,4.1,7.7,4.1z"/>
<path class="st0" d="M32.4,37.5c-0.8,0-1.5-0.3-2-0.9c-0.5,0.6-1.2,0.9-2,0.9c-1.4,0-2.5-1.1-2.5-2.5V22.3c0-0.1,0-0.1,0-0.2
	c0.1-0.3,0.2-0.7,0.2-1v-9c0-0.3-0.1-0.6-0.2-0.9c-0.1-0.2,0-0.4,0.1-0.6c0.1-0.2,0.3-0.3,0.5-0.3h7.8c2.1,0,3.8,1.7,3.8,3.8v8.3
	c0,1.2-1,2.2-2.2,2.2c-0.1,0-0.1,0-0.2,0c-0.3,0-0.5-0.1-0.8-0.2V35C34.9,36.4,33.8,37.5,32.4,37.5z M31.1,35c0,0.8,0.6,1.4,1.4,1.4
	c0.8,0,1.4-0.6,1.4-1.4V22.3l0,0v-5.7c0-0.3,0.3-0.6,0.6-0.6c0,0,0,0,0,0c0.3,0,0.6,0.3,0.6,0.6c0,0,0,0,0,0v5.7
	c0,0.5,0.4,0.9,0.9,1c0.5,0,1-0.4,1-0.9c0,0,0,0,0-0.1v-8.3c0-1.4-1.1-2.5-2.5-2.5l0,0h-7c0,0.2,0,0.4,0,0.5v9
	c0,0.4-0.1,0.9-0.3,1.3V35c0,0.8,0.6,1.4,1.4,1.4c0.8,0,1.4-0.6,1.4-1.4v-9.6c0-0.3,0.3-0.6,0.6-0.6c0,0,0,0,0,0
	c0.3,0,0.6,0.3,0.6,0.6c0,0,0,0,0,0L31.1,35z"/>
<path class="st0" d="M21.2,37.5c-0.8,0-1.6-0.4-2.1-1c-0.5,0.6-1.3,1-2.1,1c-1.5,0-2.8-1.2-2.8-2.8V23.1c-0.3,0.2-0.6,0.2-0.9,0.3
	c-1.3,0.1-2.4-0.8-2.5-2.1c0-0.1,0-0.1,0-0.2v-9c0-0.5,0.1-0.9,0.2-1.3c0.6-1.6,2.1-2.7,3.8-2.7h8.6c1.7,0,3.2,1.1,3.8,2.7
	c0.2,0.4,0.2,0.9,0.2,1.4v9c0,1.3-1.1,2.3-2.4,2.3c-0.1,0-0.1,0-0.2,0c-0.3,0-0.6-0.1-0.9-0.3v11.6C24,36.3,22.7,37.5,21.2,37.5z
	 M19.1,34.1c0.3,0,0.6,0.3,0.6,0.6c0,0,0,0,0,0c-0.2,0.8,0.4,1.6,1.2,1.8c0.8,0.2,1.6-0.4,1.8-1.2c0-0.2,0-0.4,0-0.6V21
	c0-0.3,0.3-0.6,0.6-0.6h0l0,0c0.3,0,0.6,0.2,0.7,0.5c0,0,0,0.1,0,0.1c0,0.6,0.4,1.1,1,1.1c0.4,0,0.8-0.2,1-0.5
	c0.1-0.2,0.2-0.4,0.2-0.6v-9c0-0.3-0.1-0.6-0.2-0.9l0,0c-0.4-1.1-1.5-1.8-2.6-1.9h-8.6c-1.2,0-2.2,0.7-2.6,1.9
	c-0.1,0.3-0.2,0.6-0.2,0.9v9c0,0.6,0.5,1.1,1.1,1.1c0,0,0.1,0,0.1,0c0.6-0.1,1-0.6,1-1.2c0-0.3,0.3-0.6,0.6-0.6l0,0
	c0.3,0,0.6,0.3,0.6,0.6c0,0,0,0,0,0v13.8c0,0.8,0.7,1.5,1.5,1.5s1.5-0.7,1.5-1.5C18.5,34.4,18.7,34.2,19.1,34.1z"/>
<path class="st0" d="M30.4,9.4c-1.8,0-3.3-1.5-3.3-3.3s1.5-3.3,3.3-3.3c1.8,0,3.3,1.5,3.3,3.3c0,0,0,0,0,0C33.7,8,32.3,9.4,30.4,9.4
	C30.4,9.4,30.4,9.4,30.4,9.4z M30.4,4.1c-1.1,0-2,0.9-2,2s0.9,2,2,2c1.1,0,2-0.9,2-2S31.5,4.1,30.4,4.1L30.4,4.1z"/>
<path class="st0" d="M19.1,35.4c-0.3,0-0.6-0.3-0.6-0.6c0,0,0,0,0,0V24.4c0-0.3,0.3-0.6,0.6-0.6c0,0,0,0,0,0c0.3,0,0.6,0.3,0.6,0.6
	c0,0,0,0,0,0v10.3C19.7,35.1,19.4,35.4,19.1,35.4C19.1,35.4,19.1,35.4,19.1,35.4z"/>
<path class="st0" d="M14.8,21.6c-0.3,0-0.6-0.3-0.6-0.6c0,0,0,0,0,0v-7c0-0.3,0.3-0.6,0.6-0.6c0,0,0,0,0,0c0.3,0,0.6,0.3,0.6,0.6v7
	C15.4,21.3,15.1,21.6,14.8,21.6C14.8,21.6,14.8,21.6,14.8,21.6z"/>
<path class="st0" d="M23.4,21.6c-0.3,0-0.6-0.3-0.6-0.6c0,0,0,0,0,0v-7c0-0.3,0.3-0.6,0.6-0.6l0,0c0.3,0,0.6,0.2,0.6,0.6
	c0,0,0,0,0,0v7C24,21.3,23.8,21.6,23.4,21.6C23.4,21.6,23.4,21.6,23.4,21.6z"/>
</svg>
