<svg id="Layer_1" data-name="Layer 1" xmlns="http://www.w3.org/2000/svg" viewBox="0 0 4.94 4.94"><defs><style>.cls-1{fill:#fff;}</style></defs><path class="cls-1" d="M4.21.72h0A2.46,2.46,0,0,0,2.47,0,2.51,2.51,0,0,0,.72.72h0A2.51,2.51,0,0,0,0,2.47,2.46,2.46,0,0,0,.72,4.21h0a2.47,2.47,0,0,0,1.75.73,2.43,2.43,0,0,0,1.74-.73h0a2.43,2.43,0,0,0,.73-1.74A2.47,2.47,0,0,0,4.21.72ZM4,3.94H4A2.1,2.1,0,0,1,1,4H1A2,2,0,0,1,.38,2.47,2.08,2.08,0,0,1,1,1H1A2.1,2.1,0,0,1,4,1H4a2.12,2.12,0,0,1,.61,1.48A2.08,2.08,0,0,1,4,3.94ZM2.78,1.59h0A.17.17,0,0,1,3,1.76a.11.11,0,0,0,.11.11.11.11,0,0,0,.12-.11.4.4,0,0,0-.4-.4h-.2V1.17a.11.11,0,0,0-.11-.11.12.12,0,0,0-.12.11v.19H2.16a.4.4,0,0,0-.4.4v.4a.4.4,0,0,0,.12.29.39.39,0,0,0,.28.11h.19v.79H2.16A.17.17,0,0,1,2,3.3H2A.18.18,0,0,1,2,3.18a.12.12,0,0,0-.12-.12.11.11,0,0,0-.11.12.36.36,0,0,0,.12.28h0a.4.4,0,0,0,.28.12h.19v.19a.12.12,0,0,0,.12.11.11.11,0,0,0,.11-.11V3.58h.2a.4.4,0,0,0,.4-.4V2.74a.45.45,0,0,0-.12-.29.39.39,0,0,0-.28-.11h-.2V1.59Zm-.43.75H2.16a.17.17,0,0,1-.12,0H2A.21.21,0,0,1,2,2.16v-.4a.16.16,0,0,1,.17-.17h.19v.75Zm.43.22h0a.14.14,0,0,1,.12.06A.17.17,0,0,1,3,2.74v.44a.18.18,0,0,1-.17.17h-.2V2.56Z"/></svg>