<svg id="Layer_1" data-name="Layer 1" xmlns="http://www.w3.org/2000/svg" viewBox="0 0 4.79 4.78"><defs><style>.cls-1{fill:#fff;}</style></defs><path class="cls-1" d="M1.42,2.32h.64a.13.13,0,0,1,.12.12h0V4.67a.12.12,0,0,1-.12.11H1.42a.11.11,0,0,1-.11-.11h0V2.44a.12.12,0,0,1,.11-.12ZM2,2.55H1.53v2H2v-2Zm.77-1.39h.65a.11.11,0,0,1,.11.12h0V4.67a.11.11,0,0,1-.11.11H2.72a.11.11,0,0,1-.11-.11h0V1.28a.11.11,0,0,1,.11-.12Zm.53.23H2.84V4.56h.41V1.39ZM.12,3.49H.76a.11.11,0,0,1,.11.11h0V4.67a.11.11,0,0,1-.11.11H.12A.11.11,0,0,1,0,4.67H0V3.6a.11.11,0,0,1,.12-.11Zm.52.23H.23v.84H.64V3.72ZM4,0h.64a.12.12,0,0,1,.12.11h0V4.67a.12.12,0,0,1-.12.11H4a.12.12,0,0,1-.12-.11h0V.11A.12.12,0,0,1,4,0Zm.53.23H4.14V4.56h.42V.23Z"/></svg>