<svg id="Layer_1" data-name="Layer 1" xmlns="http://www.w3.org/2000/svg" viewBox="0 0 4.94 4.64"><defs><style>.cls-1{fill:#fff;}</style></defs><path class="cls-1" d="M4.21,3.33V2.94H2.58v.39h.35a.19.19,0,0,1,.19.19h0v.92a.18.18,0,0,1-.19.19H2a.19.19,0,0,1-.19-.19h0V3.52A.2.2,0,0,1,2,3.33h.35V2.94H.77v.39h.35a.19.19,0,0,1,.19.19h0v.92a.18.18,0,0,1-.19.19H.19A.18.18,0,0,1,0,4.45H0V3.52a.19.19,0,0,1,.19-.19H.54v-.5h0a.11.11,0,0,1,.12-.11H2.35v-.8H1.7a.19.19,0,0,1-.19-.19h0V.19A.19.19,0,0,1,1.7,0H3.24a.19.19,0,0,1,.19.19h0V1.72a.19.19,0,0,1-.19.19H2.58v.8H4.32a.11.11,0,0,1,.11.11v.51h.32a.2.2,0,0,1,.19.19h0v.92a.19.19,0,0,1-.19.19H3.81a.19.19,0,0,1-.19-.19h0V3.52a.2.2,0,0,1,.19-.19h.4Zm.35.38H4v.55h.56V3.71Zm-3.63,0H.38v.55H.93V3.71Zm1.82,0H2.19v.55h.56V3.71ZM3.05.38H1.89V1.53H3.05V.38Z"/></svg>