<svg id="編集モード" xmlns="http://www.w3.org/2000/svg" viewBox="0 0 37.83 37.83"><defs><style>.cls-1{fill:#fff;}</style></defs><path class="cls-1" d="M18.92,37.83A18.92,18.92,0,1,1,37.83,18.92,18.94,18.94,0,0,1,18.92,37.83Zm0-36.6A17.69,17.69,0,1,0,36.6,18.92,17.7,17.7,0,0,0,18.92,1.23Z"/><path class="cls-1" d="M18.92,11.34A18.88,18.88,0,0,1,6,6.2a.62.62,0,0,1,.85-.9,17.6,17.6,0,0,0,12.12,4.81,17.61,17.61,0,0,0,12.2-4.89.62.62,0,0,1,.85.89A18.85,18.85,0,0,1,18.92,11.34Z"/><path class="cls-1" d="M6.44,32.64a.62.62,0,0,1-.45-.2.62.62,0,0,1,0-.87,18.93,18.93,0,0,1,25.69-.09.61.61,0,1,1-.83.9,17.71,17.71,0,0,0-24,.09A.63.63,0,0,1,6.44,32.64Z"/><path class="cls-1" d="M18.92,37.83c-5.73,0-10.22-8.31-10.22-18.91S13.19,0,18.92,0,29.13,8.31,29.13,18.92,24.64,37.83,18.92,37.83Zm0-36.6c-5,0-9,7.93-9,17.69s4,17.68,9,17.68,9-7.93,9-17.68S23.87,1.23,18.92,1.23Z"/><path class="cls-1" d="M37.22,19.53H.61A.61.61,0,0,1,0,18.92a.62.62,0,0,1,.61-.62H37.22a.61.61,0,0,1,.61.62A.61.61,0,0,1,37.22,19.53Z"/><path class="cls-1" d="M18.92,37.83a.61.61,0,0,1-.62-.61V.61A.62.62,0,0,1,18.92,0a.61.61,0,0,1,.61.61V37.22A.61.61,0,0,1,18.92,37.83Z"/></svg>