<?xml version="1.0" encoding="utf-8"?>
<!-- Generator: Adobe Illustrator 24.1.3, SVG Export Plug-In . SVG Version: 6.00 Build 0)  -->
<svg version="1.1" id="_饑1" xmlns="http://www.w3.org/2000/svg" xmlns:xlink="http://www.w3.org/1999/xlink" x="0px" y="0px"
	 viewBox="0 0 54.1 42.2" style="enable-background:new 0 0 54.1 42.2;" xml:space="preserve">
<style type="text/css">
	.st0{fill:#FFFFFF;}
</style>
<path class="st0" d="M53.5,29c-0.2,0-0.4-0.1-0.5-0.2L47.5,22l-6.8,5.5c-0.3,0.2-0.7,0.2-0.9-0.1s-0.2-0.7,0.1-0.9l0,0l7.3-5.9
	c0.3-0.2,0.7-0.2,0.9,0.1l6,7.3c0.2,0.3,0.2,0.6-0.1,0.9c0,0,0,0,0,0C53.8,29,53.6,29,53.5,29z"/>
<path class="st0" d="M6.6,21.8c-0.2,0-0.4-0.1-0.5-0.2l-5.9-7.3C-0.1,14,0,13.6,0.2,13.4c0,0,0,0,0,0c0.3-0.2,0.6-0.2,0.9,0.1
	c0,0,0,0,0,0l5.5,6.8l6.8-5.5c0.3-0.2,0.7-0.2,0.9,0.1c0.2,0.3,0.2,0.7-0.1,0.9l-7.3,5.9C6.8,21.7,6.7,21.8,6.6,21.8z"/>
<path class="st0" d="M27,42.2c-7.5,0-14.5-4-18.2-10.6c-0.2-0.3,0-0.7,0.2-0.8c0.3-0.2,0.7-0.1,0.8,0.2c5.5,9.5,17.6,12.8,27.2,7.3
	c6.2-3.6,9.9-10.1,9.9-17.2c0-0.3,0.2-0.7,0.5-0.7c0.3,0,0.7,0.2,0.7,0.5c0,0.1,0,0.1,0,0.2C48.2,32.8,38.7,42.2,27,42.2
	C27,42.2,27,42.2,27,42.2z"/>
<path class="st0" d="M33.6,18.9c-1.5,0-2.9-0.7-3.8-1.9c-0.2-0.3-0.2-0.8,0.1-1c0.3-0.2,0.8-0.2,1,0.1c1,1.3,2.8,1.7,4.3,1h0.1
	c0.6-0.3,0.9-0.9,0.8-1.6c-0.1-0.8-0.6-1.4-1.3-1.6L32,12.9c-1.4-0.3-2.4-1.6-2.3-3c0-0.8,0.3-1.6,0.9-2.1c0.9-0.7,2-1,3.1-0.9
	c1.8-0.1,3.4,1,3.9,2.7c0.1,0.4-0.2,0.8-0.6,0.8c-0.3,0-0.6-0.1-0.8-0.4c-0.4-1-1.4-1.7-2.5-1.6c-0.7-0.1-1.5,0.1-2.1,0.5
	c-0.3,0.3-0.4,0.6-0.4,1c0,0.6,0.1,1.2,1.3,1.5l2.8,0.8c1.3,0.4,2.3,1.6,2.4,2.9c0.2,1.3-0.5,2.6-1.7,3.1
	C35.2,18.7,34.4,18.9,33.6,18.9z"/>
<path class="st0" d="M33.7,8.4c-0.4,0-0.7-0.3-0.7-0.7V5.5c0-0.4,0.3-0.7,0.7-0.7c0.4,0,0.7,0.3,0.7,0.7v2.2
	C34.5,8.1,34.1,8.4,33.7,8.4C33.7,8.4,33.7,8.4,33.7,8.4z"/>
<path class="st0" d="M33.7,21.2c-0.4,0-0.7-0.3-0.7-0.7c0,0,0,0,0,0v-2.2c0-0.4,0.3-0.7,0.7-0.7s0.7,0.3,0.7,0.7c0,0,0,0,0,0v2.2
	C34.5,20.9,34.1,21.2,33.7,21.2z"/>
<path class="st0" d="M33.6,25.5c-6.8,0-12.3-5.5-12.3-12.2S26.9,1,33.6,1c6.8,0,12.3,5.5,12.3,12.2c0,0,0,0,0,0
	C45.9,20,40.4,25.5,33.6,25.5z M33.6,2.5c-5.9,0-10.8,4.8-10.8,10.8S27.7,24,33.6,24s10.8-4.8,10.8-10.8c0,0,0,0,0,0
	C44.4,7.3,39.6,2.5,33.6,2.5L33.6,2.5z"/>
<path class="st0" d="M27,0C15.4,0,5.9,9.5,5.9,21.1c0,0.3,0.4,0.6,0.7,0.5c0.3,0,0.5-0.3,0.5-0.5C7.2,10.2,16,1.3,27,1.2l0,0
	c0.3,0,0.6-0.4,0.5-0.7C27.5,0.3,27.3,0,27,0z"/>
</svg>
