<svg id="編集モード" xmlns="http://www.w3.org/2000/svg" viewBox="0 0 40.12 40.12"><defs><style>.cls-1{fill:#fff;}</style></defs><path class="cls-1" d="M19.9,27.39a5.55,5.55,0,0,1-4.58-2.34.61.61,0,1,1,1-.75,4.76,4.76,0,0,0,6,1.33l.06,0a2.38,2.38,0,0,0,1.3-2.45,2.9,2.9,0,0,0-2-2.43l-3.6-1.07a3.42,3.42,0,0,1-2.79-3.53,3.28,3.28,0,0,1,1.11-2.51,5.5,5.5,0,0,1,3.8-1.09,4.82,4.82,0,0,1,4.71,3.25.6.6,0,0,1-.42.76.62.62,0,0,1-.76-.42,3.59,3.59,0,0,0-3.55-2.36,4.42,4.42,0,0,0-3,.79,2.06,2.06,0,0,0-.69,1.6,2.23,2.23,0,0,0,1.91,2.33L22,19.55A4.1,4.1,0,0,1,24.88,23a3.59,3.59,0,0,1-2,3.7A7.3,7.3,0,0,1,19.9,27.39Z"/><path class="cls-1" d="M20.18,13.76a.61.61,0,0,1-.62-.61V10.3a.61.61,0,0,1,.62-.61.61.61,0,0,1,.61.61v2.85A.61.61,0,0,1,20.18,13.76Z"/><path class="cls-1" d="M20.18,30.43a.62.62,0,0,1-.62-.62V27a.61.61,0,0,1,.62-.61.61.61,0,0,1,.61.61v2.84A.61.61,0,0,1,20.18,30.43Z"/><path class="cls-1" d="M20.06,36.94A16.88,16.88,0,1,1,36.93,20.06,16.9,16.9,0,0,1,20.06,36.94Zm0-32.53A15.65,15.65,0,1,0,35.71,20.06,15.67,15.67,0,0,0,20.06,4.41Z"/><path class="cls-1" d="M20.06,40.12A20.06,20.06,0,1,1,40.12,20.06,20.08,20.08,0,0,1,20.06,40.12Zm0-38.89A18.83,18.83,0,1,0,38.89,20.06,18.86,18.86,0,0,0,20.06,1.23Z"/></svg>