<svg id="Layer_1" data-name="Layer 1" xmlns="http://www.w3.org/2000/svg" viewBox="0 0 4.79 4.78"><defs><style>.cls-1{fill:#fff;}</style></defs><path class="cls-1" d="M.74,4.26a.19.19,0,0,0,.19-.19.18.18,0,0,0-.19-.18.19.19,0,0,0-.19.18.2.2,0,0,0,.19.19Zm0-1.68h0a.19.19,0,0,0,.19-.19.18.18,0,0,0-.19-.18.19.19,0,0,0-.19.18.2.2,0,0,0,.19.19ZM4.67,0H.12A.11.11,0,0,0,0,.11v1.2a.11.11,0,0,0,.12.11H4.67a.12.12,0,0,0,.12-.11V.11A.12.12,0,0,0,4.67,0ZM4.56,1.2H.23v-1H4.56v1Zm.11.48H.12A.11.11,0,0,0,0,1.79V3a.12.12,0,0,0,.12.12H4.67A.13.13,0,0,0,4.79,3V1.79a.12.12,0,0,0-.12-.11Zm-.11,1.2H.23v-1H4.56v1ZM.74.9h0A.19.19,0,0,0,.93.71.18.18,0,0,0,.74.53.19.19,0,0,0,.55.71.2.2,0,0,0,.74.9ZM4.67,3.36H.12A.11.11,0,0,0,0,3.47v1.2a.11.11,0,0,0,.12.11H4.67a.12.12,0,0,0,.12-.11V3.47a.12.12,0,0,0-.12-.11Zm-.11,1.2H.23v-1H4.56v1Z"/></svg>