<svg id="Layer_1" data-name="Layer 1" xmlns="http://www.w3.org/2000/svg" viewBox="0 0 4.24 4.94"><defs><style>.cls-1{fill:#fff;}</style></defs><path class="cls-1" d="M4,.56H.75A.71.71,0,0,1,.44.5L.38.47h0l.06,0A.71.71,0,0,1,.75.38H4a.2.2,0,0,0,.2-.19A.19.19,0,0,0,4,0H.75A1.17,1.17,0,0,0,.27.1.44.44,0,0,0,0,.47v4a.41.41,0,0,0,.27.37,1,1,0,0,0,.48.11H4a.2.2,0,0,0,.2-.19v-4A.2.2,0,0,0,4,.56Zm-.18,4H.75a.71.71,0,0,1-.31-.07.14.14,0,0,1-.06,0V.88A1.1,1.1,0,0,0,.75.94H3.86V4.56ZM1.51,3h0l-.27.82a.12.12,0,0,0,.18.13l.7-.51.69.5a.09.09,0,0,0,.11,0A.11.11,0,0,0,3,3.79L2.72,3l.71-.51h0a.15.15,0,0,0,0-.09.11.11,0,0,0-.11-.12H2.49l-.27-.82a.08.08,0,0,0-.07-.07A.11.11,0,0,0,2,1.43l-.27.82H.88a.16.16,0,0,0-.1,0,.12.12,0,0,0,0,.16l.7.51Zm.32-.49h0a.11.11,0,0,0,.1-.08h0l.19-.57.18.57a.13.13,0,0,0,.12.08H3l-.49.35a.12.12,0,0,0,0,.13l.19.57-.49-.36a.12.12,0,0,0-.13,0h0l-.48.36L1.75,3a.11.11,0,0,0,0-.13h0l-.48-.35Z"/></svg>