<svg id="編集モード" xmlns="http://www.w3.org/2000/svg" viewBox="0 0 37.56 37.56"><defs><style>.cls-1{fill:#fff;}</style></defs><path class="cls-1" d="M18.78,28.73a10,10,0,1,1,10-9.95A10,10,0,0,1,18.78,28.73Zm0-18.67a8.72,8.72,0,1,0,8.72,8.72A8.73,8.73,0,0,0,18.78,10.06Z"/><path class="cls-1" d="M19.85,37.56H17.7a2.8,2.8,0,0,1-2.79-2.8V32.92a14.85,14.85,0,0,1-3.4-1.4l-1.29,1.29a2.8,2.8,0,0,1-4,0L4.74,31.3a2.81,2.81,0,0,1,0-4L6,26a14.35,14.35,0,0,1-1.4-3.39H2.8A2.81,2.81,0,0,1,0,19.85V17.71a2.8,2.8,0,0,1,2.8-2.8H4.64A14.42,14.42,0,0,1,6,11.51l-1.3-1.29a2.81,2.81,0,0,1,0-4L6.26,4.74a2.81,2.81,0,0,1,4,0L11.51,6a14.42,14.42,0,0,1,3.4-1.4V2.8A2.8,2.8,0,0,1,17.7,0h2.15a2.81,2.81,0,0,1,2.8,2.8V4.64A14.35,14.35,0,0,1,26,6l1.3-1.3a2.81,2.81,0,0,1,4,0l1.51,1.52a2.8,2.8,0,0,1,0,4l-1.3,1.29a14.88,14.88,0,0,1,1.41,3.4h1.84a2.8,2.8,0,0,1,2.8,2.8v2.14a2.81,2.81,0,0,1-2.8,2.8H32.92A14.38,14.38,0,0,1,31.51,26l1.3,1.3a2.8,2.8,0,0,1,0,4L31.3,32.81a2.8,2.8,0,0,1-4,0L26,31.52a14.78,14.78,0,0,1-3.39,1.4v1.84A2.81,2.81,0,0,1,19.85,37.56Zm-8.11-7.34a13.21,13.21,0,0,0,3.92,1.62.63.63,0,0,1,.48.6v2.32a1.57,1.57,0,0,0,1.56,1.57h2.15a1.57,1.57,0,0,0,1.57-1.57V32.44a.62.62,0,0,1,.47-.6,13.38,13.38,0,0,0,3.93-1.62.61.61,0,0,1,.79.12l1.6,1.6a1.59,1.59,0,0,0,2.22,0l1.51-1.51a1.57,1.57,0,0,0,0-2.22l-1.6-1.6a.63.63,0,0,1-.15-.74.25.25,0,0,1,0-.07,13.4,13.4,0,0,0,1.61-3.91.62.62,0,0,1,.6-.47h2.32a1.57,1.57,0,0,0,1.57-1.57V17.71a1.57,1.57,0,0,0-1.57-1.57H32.44a.63.63,0,0,1-.6-.48,13.21,13.21,0,0,0-1.62-3.92.62.62,0,0,1,.09-.76l1.63-1.63a1.55,1.55,0,0,0,.46-1.11,1.53,1.53,0,0,0-.46-1.11L30.43,5.61a1.58,1.58,0,0,0-2.22,0L26.57,7.25a.61.61,0,0,1-.75.09,13.4,13.4,0,0,0-3.93-1.63.6.6,0,0,1-.47-.6V2.8a1.57,1.57,0,0,0-1.57-1.57H17.7A1.56,1.56,0,0,0,16.14,2.8V5.11a.61.61,0,0,1-.48.6,13.23,13.23,0,0,0-3.92,1.63A.62.62,0,0,1,11,7.25L9.35,5.61a1.58,1.58,0,0,0-2.22,0L5.61,7.13a1.58,1.58,0,0,0,0,2.22L7.25,11a.62.62,0,0,1,.09.76,13.23,13.23,0,0,0-1.63,3.92.61.61,0,0,1-.6.48H2.8a1.57,1.57,0,0,0-1.57,1.57v2.14A1.57,1.57,0,0,0,2.8,21.42H5.11a.6.6,0,0,1,.6.47,13.4,13.4,0,0,0,1.63,3.93.61.61,0,0,1-.13.79l-1.6,1.6a1.58,1.58,0,0,0,0,2.22l1.52,1.51a1.59,1.59,0,0,0,2.22,0L11,30.35a.6.6,0,0,1,.74-.16Z"/></svg>